<svg xmlns="http://www.w3.org/2000/svg" viewBox="0 0 32 32" shape-rendering="crispEdges">
  <path fill="#162e3b" d="M3 4h23v2h3v17h-3v2H18v2h5v2H10v-2h4v-2H3z"/>
  <path fill="#69838a" d="M3 4h23v18H3z"/>
  <path fill="#c6d6d1" d="M3 4h23v2H5v14H3z"/>
  <path fill="#3c5968" d="M26 6h3v17h-3zM5 20h21v3H5z"/>
  <path fill="#173f53" d="M6 7h17v11H6z"/>
  <path fill="#29657b" d="M7 8h15v2H7zM7 11h15v1H7zM7 14h15v1H7z"/>
  <path fill="#e9b847" d="M7 16h3v-3h4v1h3v-5h5v2h-3v5h-7v-1h-1v3H7z"/>
  <path fill="#efd28c" d="M20 9h2v2h-2z"/>
  <path fill="#8aa4aa" d="M14 23h4v4h-4zM10 27h13v2H10z"/>
  <path fill="#c6d6d1" d="M11 27h11v1H11z"/>
  <path fill="#70bbaa" d="M22 20h2v1h-2z"/>
</svg>
